# xmcd
#
# Track frame offsets: 
#        150
#        19725
#        40808
#        56200
#        79770
#        101358
#        112910
#        130155
#        141702
#        158540
#
# Disc length: 2289 seconds
#
# Revision: 0
# Processed by: cddbd v1.5.2PL0 Copyright (c) Steve Scherf et al.
# Submitted via: ExactAudioCopy v0.99pb3
#
DISCID=7e08ef0a
DTITLE=Austin Walkin' Cane - 706 Union Ave.
DYEAR=2003
DGENRE=Blues
TTITLE0=Walkin' Blues
TTITLE1=Heart Of The City
TTITLE2=Forever Lovin' Man
TTITLE3=Better Than I Should
TTITLE4=Look Over Yonder Wall
TTITLE5=Love Grown Strong
TTITLE6=I Can't Be Satisfied
TTITLE7=I'm A Country Boy
TTITLE8=The Ballad Of The Honeymooners
TTITLE9=Fishin' Blues
EXTD=
EXTT0=
EXTT1=
EXTT2=
EXTT3=
EXTT4=
EXTT5=
EXTT6=
EXTT7=
EXTT8=
EXTT9=
PLAYORDER=
